<svg width="24" height="24" viewBox="0 0 24 24" fill="none" xmlns="http://www.w3.org/2000/svg">
<g id="Chat">
<path id="Ellipse 5" d="M23 11.2114C23 16.788 18.1402 21.4227 12 21.4227C11.9129 21.4227 11.8281 21.4228 11.7454 21.4229C10.1801 21.4242 9.37464 21.4248 8.17793 20.9363C7.76303 20.767 7.34185 20.8448 7.11256 20.9001C6.83863 20.9662 6.55056 21.0771 6.27915 21.1958C5.77322 21.4173 5.18863 21.7284 4.64619 22.0171C4.60614 22.0384 4.56632 22.0596 4.52678 22.0807C3.93366 22.3961 3.40058 22.6752 2.9745 22.8505C2.97456 22.847 2.97462 22.8434 2.97469 22.8398C2.98333 22.3821 3.06763 21.787 3.17373 21.1059C3.18541 21.031 3.19736 20.9549 3.20944 20.878C3.30154 20.2919 3.40101 19.6588 3.4415 19.1129C3.46456 18.8021 3.47235 18.4769 3.43857 18.1755C3.40731 17.8967 3.32766 17.506 3.07103 17.1756C1.76394 15.4928 1 13.4334 1 11.2114C1 5.63473 5.85975 1 12 1C18.1402 1 23 5.63473 23 11.2114ZM2.49374 23.0016C2.49416 23.0011 2.50177 23 2.51533 22.9999C2.5001 23.002 2.49332 23.0021 2.49374 23.0016ZM3.00937 23.2938C3.01101 23.2978 3.01171 23.2999 3.01164 23.3001C3.01158 23.3002 3.01076 23.2982 3.00937 23.2938Z" stroke="white" stroke-width="2"/>
<g id="Group 33489">
<ellipse id="Ellipse 6" cx="8.42754" cy="12.0264" rx="1.2" ry="1.11342" fill="#FE1F27"/>
<ellipse id="Ellipse 7" cx="12.0281" cy="12.0264" rx="1.2" ry="1.11342" fill="#FE1F27"/>
<ellipse id="Ellipse 8" cx="15.6287" cy="12.0264" rx="1.2" ry="1.11342" fill="#FE1F27"/>
</g>
</g>
</svg>
