<svg width="24" height="25" viewBox="0 0 24 25" fill="none" xmlns="http://www.w3.org/2000/svg">
<g id="Iconly/Light/Delete">
<rect width="24" height="24" fill="#101010"/>
<g id="Delete">
<path id="Rectangle 57" d="M1 5H12H23M21 9L19.2314 22.2643C19.0989 23.2579 18.2514 24 17.249 24H12H6.75103C5.74863 24 4.90106 23.2579 4.76858 22.2643L3 9" stroke="white" stroke-width="2" stroke-linecap="round"/>
<path id="Vector 7" d="M6 5C6.72727 4.83614 7.76928 4.07056 8.18182 2.54204C8.72727 0.521039 12 1.06724 13.6364 1.06724C14.1818 1.06723 15.4835 1.3355 15.8182 2.54201C16.3636 4.50836 16.9091 4.99998 18 4.99998" stroke="white" stroke-width="2" stroke-linecap="round"/>
</g>
<g id="Delete_2">
<path id="Rectangle 57_2" d="M1 5H12H23" stroke="#FE1F27" stroke-width="2" stroke-linecap="round"/>
<path id="Vector 7_2" d="M6 5C6.72727 4.83614 7.76928 4.07056 8.18182 2.54204C8.72727 0.521039 12 1.06724 13.6364 1.06724C14.1818 1.06723 15.4835 1.3355 15.8182 2.54201C16.3636 4.50836 16.9091 4.99998 18 4.99998" stroke="#FE1F27" stroke-width="2" stroke-linecap="round"/>
</g>
</g>
</svg>
